PathFileType	4	(X/Y/Z)	/Users/mathieubourgeois/Desktop/Analyse/Traitement/Sujet_06/Data/Transformed_Sujet_06_velo_60.trc
DataRate	CameraRate	NumFrames	NumMarkers	Units	OrigDataRate	OrigDataStartFrame	OrigNumFrames
120.000000	120.000000	4	36	mm	120.000000	233	1868
Frame#	Time	RFHD			RANE			STRN			LANI			LKNE			T10			RHUM			RWRB			C7			LFWT			LTOE			RTOE			LWRA			LBWT			RBWT			RFWT			LKNI			RKNI			RKNE			LANE			RANI			LHEE			RHEE			LHUM			LRAD			RRAD			RWRA			LWRB			LFHD			LBHD			RBHD			RSHO			LSHO			CLAV			LCAR			RCAR			
		X1	Y1	Z1	X2	Y2	Z2	X3	Y3	Z3	X4	Y4	Z4	X5	Y5	Z5	X6	Y6	Z6	X7	Y7	Z7	X8	Y8	Z8	X9	Y9	Z9	X10	Y10	Z10	X11	Y11	Z11	X12	Y12	Z12	X13	Y13	Z13	X14	Y14	Z14	X15	Y15	Z15	X16	Y16	Z16	X17	Y17	Z17	X18	Y18	Z18	X19	Y19	Z19	X20	Y20	Z20	X21	Y21	Z21	X22	Y22	Z22	X23	Y23	Z23	X24	Y24	Z24	X25	Y25	Z25	X26	Y26	Z26	X27	Y27	Z27	X28	Y28	Z28	X29	Y29	Z29	X30	Y30	Z30	X31	Y31	Z31	X32	Y32	Z32	X33	Y33	Z33	X34	Y34	Z34	X35	Y35	Z35	X36	Y36	Z36	

234	1.941666666666667	255.9673614501953	1373.647827148438	128.3347473144531	-183.2871551513672	516.0235595703125	199.0927429199218	-44.25436782836915	1200.75830078125	49.01615142822258	72.11392211914064	329.3275451660156	-60.72872924804689	56.12668228149415	730.2284545898438	-127.457992553711	-203.9304504394531	1349.537841796875	51.9136505126952	188.0727996826172	1131.291748046875	216.1025848388672	390.4940490722656	1009.628601074219	179.4114532470703	30.53356170654296	1460.816528320312	59.86414337158195	-179.1131591796875	1108.0185546875	-63.95990753173837	232.3715362548828	259.6366882324219	-122.5171127319336	-84.77627563476565	355.7249450683594	199.430419921875	414.6763305664062	1028.218017578125	-138.6621246337891	-338.4872131347656	1138.72705078125	-12.59242630004894	-336.4913635253906	1136.916381835938	97.17193603515614	-177.9351043701172	1104.545532226562	146.4820709228515	83.03828430175781	682.99658203125	-35.47874069213871	97.5576934814453	750.5113525390625	131.6720123291015	81.51110839843747	796.9468994140625	227.1339416503906	45.27739334106447	320.9668273925781	-139.3208312988282	-158.7480926513672	506.2103576660156	124.3458099365234	-5.604529857635486	306.4941711425781	-99.61346435546876	-234.1957702636719	537.2593383789062	151.2369842529296	187.3639526367188	1132.58740234375	-173.810546875	226.7288818359375	1181.230590820312	-186.8274078369141	230.1591644287109	1164.492065429688	256.3249206542968	422.7468566894531	1028.902221679688	231.5276641845703	430.0740356445312	1034.037841796875	-199.7770080566406	260.3252258300781	1370.124877929688	-15.20315837860113	190.0764465332031	1503.050659179688	-21.08547592163093	188.5425872802734	1525.697509765625	107.4123992919921	45.12058258056638	1408.847900390625	196.2401885986327	30.04808616638185	1409.657348632812	-97.44696044921884	38.85181808471679	1324.349975585938	52.15885543823235	490.296142578125	1043.400268554688	-125.2223129272461	486.7552795410156	1049.305786132812	158.9747009277344	
235	1.95	255.8536987304687	1373.800537109375	128.9321746826171	-178.6702880859375	524.2659301757812	199.1018371582031	-44.20341110229493	1200.78857421875	49.34209823608391	68.06386566162111	321.90673828125	-61.03903961181642	50.08523559570314	723.0778198242188	-128.2345123291016	-203.9694671630859	1349.449462890625	51.83118438720692	187.9145355224609	1131.124389648438	216.2570037841797	390.4364929199219	1009.612731933594	179.3499145507812	30.40630912780761	1460.870483398438	60.39746475219718	-178.7650604248047	1107.673583984375	-64.32530212402354	228.0873565673828	251.3014831542969	-122.6548156738281	-81.10871124267581	363.5523376464844	198.7265319824218	414.71630859375	1028.199340820312	-138.6611633300781	-338.1297302246094	1138.5625	-13.16896438598644	-336.4960632324219	1136.871704101562	96.5689239501952	-177.9130249023438	1104.628540039062	146.127716064453	77.05301666259766	675.9046020507812	-36.01250457763675	104.8846130371094	758.9771728515625	131.0870056152343	85.7323303222656	804.7246704101562	227.3250579833984	41.03955078125001	313.369384765625	-139.5832061767578	-154.1819458007813	514.4198608398438	124.4067687988281	-9.696208953857409	299.0872497558594	-99.68680572509767	-229.651840209961	545.6240234375	151.2369232177734	187.3713836669922	1132.755615234375	-173.4842071533203	226.793701171875	1181.411865234375	-186.3213195800782	230.0051116943359	1164.292724609375	256.4977416992187	422.6686401367188	1028.892578125	231.4679565429688	430.0354614257812	1034.09521484375	-199.7765960693359	260.2969360351562	1370.3046875	-14.6027975082398	190.04052734375	1503.199584960938	-20.55227661132819	188.3614349365234	1525.860717773438	108.0070877075195	44.87994766235349	1408.66455078125	196.8502655029296	30.11040496826173	1409.803588867188	-96.93527221679696	38.00170135498046	1324.99072265625	53.4056205749511	490.27783203125	1043.379760742188	-125.2893142700195	486.6633605957031	1049.373291015625	158.9269409179688	
236	1.958333333333333	255.6932830810547	1373.951171875	129.5618743896484	-174.0042419433594	532.1795654296875	199.1146240234374	-44.21328353881837	1200.776123046875	49.69449615478508	63.74837493896485	314.8638916015625	-61.378963470459	44.07159423828126	716.2314453125	-128.9263916015626	-204.019287109375	1349.347778320312	51.76413345336903	187.7727661132812	1130.984375	216.4078674316406	390.3500366210938	1009.619567871094	179.310546875	30.23372077941894	1460.905029296875	60.95922851562491	-178.4315643310547	1107.32470703125	-64.66400146484385	223.3895721435547	243.0386505126953	-122.8344268798828	-76.68669128417972	371.3443603515625	198.5299987792968	414.6845397949219	1028.16796875	-138.6676025390625	-337.7922973632812	1138.40625	-13.75731658935558	-336.4628295898438	1137.040161132812	95.88758850097645	-177.9009246826172	1104.67431640625	145.8034057617187	70.88976287841797	669.0054321289062	-36.44271850585941	108.8908081054687	766.8643188476562	131.464370727539	89.750617980957	812.527587890625	227.4395446777343	36.4708938598633	306.1264953613281	-139.7468719482422	-149.4411163330078	522.3534545898438	124.4351043701171	-14.33673191070555	292.4285583496094	-100.1423492431641	-225.0141296386719	553.5419311523438	151.2087402343749	187.3377685546875	1132.841796875	-173.1304931640625	226.7846069335938	1181.504516601562	-185.814437866211	229.8685607910156	1164.135864257812	256.6896972656249	422.5967407226562	1028.881225585938	231.3875885009766	429.9634399414062	1034.112548828125	-199.8153686523438	260.2274475097656	1370.460815429688	-14.00562763214116	189.8883209228516	1503.37646484375	-19.91557884216315	188.1459197998047	1525.984375	108.6132583618163	44.68339538574217	1408.470825195312	197.398941040039	30.13381958007814	1409.923217773438	-96.32725524902352	38.63773345947265	1324.492431640625	53.0749320983886	490.2477111816406	1043.345458984375	-125.3686904907227	486.5809631347656	1049.417114257812	158.8724822998047	
237	1.966666666666667	255.5403289794922	1374.085693359375	130.1472167968749	-170.1792602539063	539.8944091796875	199.9523620605468	-44.25022125244141	1200.774780273438	50.08764648437492	60.20265197753907	309.3003845214844	-62.12544631958009	38.09997558593751	709.686279296875	-129.5610046386719	-204.0887603759766	1349.234252929688	51.71971130371082	187.6571502685547	1130.869262695312	216.541030883789	390.2834167480469	1009.634399414062	179.2444152832031	30.07885742187499	1460.914672851562	61.51937866210929	-178.1155395507812	1106.963989257812	-65.02241516113291	218.2471923828125	234.943603515625	-122.9478149414062	-71.55606842041018	379.2523803710938	198.7206726074218	414.6397399902344	1028.107299804688	-138.7046051025391	-337.4630126953125	1138.230712890625	-14.35605239868175	-336.5058288574219	1136.995849609375	95.25435638427723	-177.9295196533203	1104.695556640625	145.5033874511718	64.43457794189453	662.438720703125	-36.69286727905277	113.3417816162109	775.0161743164062	131.2530059814453	93.600959777832	820.3654174804688	227.4304962158203	31.48534965515138	299.2852478027344	-140.0013885498047	-144.7450714111328	530.0315551757812	124.3751678466796	-19.44364738464354	286.390625	-100.6561737060547	-220.4355163574219	560.8984985351562	151.2610778808593	187.2467193603516	1132.876586914062	-172.7659759521485	226.7608947753907	1181.550170898438	-185.2968139648438	229.7532348632812	1163.997436523438	256.8616943359374	422.5397338867188	1028.887451171875	231.3337554931641	429.8529663085938	1034.118530273438	-199.8736724853516	260.1183166503906	1370.657592773438	-13.38220596313482	189.7786254882812	1503.5517578125	-19.37432861328132	187.9281616210938	1526.086059570312	109.1938095092773	44.50693130493162	1408.277587890625	197.9891052246093	30.14104080200196	1409.997192382812	-95.89759063720712	38.53371429443359	1324.498291015625	53.55094146728509	490.1792907714844	1043.35986328125	-125.4275436401367	486.5231323242188	1049.459716796875	158.8032073974609	
